{"title":"Spartacus_S03E04_Decimation_Xvid_Spanish_hardsub.avi","uid":8181723,"size":886536192,"categoryP":"video","categoryS":"movie_clips","magnet":"?xt=urn:btih:026cea28324db87c1dccbd08ae5b703ec25969b5&amp;dn=Spartacus_S03E04_Decimation_Xvid_Spanish_hardsub.avi&amp;tr=udp%3A%2F%2Ftracker.openbittorrent.com%3A80&amp;tr=udp%3A%2F%2Fopen.demonii.com%3A1337&amp;tr=udp%3A%2F%2Ftracker.coppersurfer.tk%3A6969&amp;tr=udp%3A%2F%2Fexodus.desync.com%3A6969","seeders":1,"leechers":0,"uploader":"sekininsha","files":1,"time":1361638415,"description":"Video\nID                                       : 0\nFormat                                   : MPEG-4 Visual\nFormat profile                           : Advanced Simple@L5\nFormat settings, BVOP                    : 2\nFormat settings, QPel                    : No\nFormat settings, GMC                     : No warppoints\nFormat settings, Matrix                  : Default (H.263)\nMuxing mode                              : Packed bitstream\nCodec ID                                 : XVID\nCodec ID/Hint                            : XviD\nDuration                                 : 56mn 31s\nBit rate                                 : 1 698 Kbps\nWidth                                    : 720 pixels\nHeight                                   : 404 pixels\nDisplay aspect ratio                     : 16:9\nFrame rate                               : 23.976 fps\nColor space                              : YUV\nChroma subsampling                       : 4:2:0\nBit depth                                : 8 bits\nScan type                                : Progressive\nCompression mode                         : Lossy\nBits/(Pixel*Frame)                       : 0.243\nStream size                              : 686 MiB (81%)\nWriting library                          : XviD 64\n\nAudio\nID                                       : 1\nFormat                                   : AC-3\nFormat/Info                              : Audio Coding 3\nMode extension                           : CM (complete main)\nFormat settings, Endianness              : Big\nCodec ID                                 : 2000\nDuration                                 : 56mn 31s\nBit rate mode                            : Constant\nBit rate                                 : 384 Kbps\nChannel(s)                               : 6 channels\nChannel positions                        : Front: L C R, Side: L R, LFE\nSampling rate                            : 48.0 KHz\nBit depth                                : 16 bits\nCompression mode                         : Lossy\nStream size                              : 155 MiB (18%)\nAlignment                                : Split accross interleaves\nInterleave, duration                     : 42 ms (1.00 video frame)\nInterleave, preload duration             : 500 ms","torrent":{"xt":"urn:btih:026cea28324db87c1dccbd08ae5b703ec25969b5","amp;dn":"Spartacus_S03E04_Decimation_Xvid_Spanish_hardsub.avi","amp;tr":["udp%3A%2F%2Ftracker.openbittorrent.com%3A80","udp%3A%2F%2Fopen.demonii.com%3A1337","udp%3A%2F%2Ftracker.coppersurfer.tk%3A6969","udp%3A%2F%2Fexodus.desync.com%3A6969"],"infoHash":"026cea28324db87c1dccbd08ae5b703ec25969b5","infoHashBuffer":{"type":"Buffer","data":[2,108,234,40,50,77,184,124,29,204,189,8,174,91,112,62,194,89,105,181]},"announce":[],"urlList":[]}}